<?xml version="1.0" encoding="iso-8859-1"?>
<!-- Generator: Adobe Illustrator 19.0.0, SVG Export Plug-In . SVG Version: 6.00 Build 0)  -->
<svg version="1.1" id="Layer_1" xmlns="http://www.w3.org/2000/svg" xmlns:xlink="http://www.w3.org/1999/xlink" x="0px" y="0px"
	 viewBox="0 0 512.001 512.001" style="enable-background:new 0 0 512.001 512.001;" xml:space="preserve">
<path style="fill:#CAD1D8;" d="M24,16h464c13.254,0,24,10.745,24,24v432c0,13.254-10.745,24-24,24H24C10.745,496,0,485.255,0,472V40
	C0,26.745,10.745,16,24,16z"/>
<g>
	<circle style="fill:#9BA7AF;" cx="24.002" cy="47.995" r="7.998"/>
	<circle style="fill:#9BA7AF;" cx="56.002" cy="47.995" r="7.998"/>
	<circle style="fill:#9BA7AF;" cx="88.002" cy="47.995" r="7.998"/>
</g>
<path style="fill:#FFFFFF;" d="M24,80h464c4.418,0,8,3.582,8,8v384c0,4.418-3.582,8-8,8H24c-4.418,0-8-3.582-8-8V88
	C16,83.582,19.582,80,24,80z"/>
<path style="fill:#E2E5E7;" d="M120,40h368c4.418,0,8,3.582,8,8l0,0c0,4.418-3.582,8-8,8H120c-4.418,0-8-3.582-8-8l0,0
	C112,43.582,115.582,40,120,40z"/>
<path style="fill:#ABE1FA;" d="M56,152.001h176c4.418,0,8,3.582,8,8v128c0,4.418-3.582,8-8,8H56c-4.418,0-8-3.582-8-8v-128
	C48,155.582,51.582,152.001,56,152.001z"/>
<circle style="fill:#F19F35;" cx="88.002" cy="184.002" r="15.995"/>
<path style="fill:#595A66;" d="M240,280l-58.32-58.32c-3.121-3.102-8.159-3.102-11.28,0L96,296h136.001c4.418,0,8-3.582,8-8L240,280
	L240,280z"/>
<path style="fill:#35363E;" d="M208,256L208,256c-2.197,2.215-2.197,5.786,0,8l4.72,4.72c7.223,7.242,11.279,17.052,11.28,27.28
	h8.001c4.418,0,8-3.582,8-8v-8l-24-24C213.786,253.803,210.215,253.803,208,256z"/>
<path style="fill:#595A66;" d="M56,296h96l-50-57.12c-2.897-3.336-7.95-3.691-11.286-0.794c-0.283,0.246-0.549,0.511-0.794,0.794
	L48.001,280v8C48,292.418,51.582,296,56,296z"/>
<path style="fill:#35363E;" d="M145.68,270.48c-4.819-5.448-12.708-6.961-19.2-3.68l25.52,29.2h16L145.68,270.48z"/>
<g>
	<path style="fill:#6F707E;" d="M170.11,233.179L170.11,233.179c1.562,1.562,1.562,4.095,0,5.657l-11.314,11.314
		c-1.562,1.562-4.095,1.562-5.657,0l0,0c-1.562-1.562-1.562-4.095,0-5.657l11.314-11.314
		C166.016,231.617,168.548,231.617,170.11,233.179z"/>
	<path style="fill:#6F707E;" d="M94.845,245.79L94.845,245.79c1.562,1.562,1.562,4.095,0,5.657L83.531,262.76
		c-1.562,1.562-4.095,1.562-5.657,0l0,0c-1.562-1.562-1.562-4.095,0-5.657l11.314-11.314
		C90.75,244.228,93.283,244.228,94.845,245.79z"/>
</g>
<g>
	<path style="fill:#CAD1D8;" d="M56,376h160c4.418,0,8,3.582,8,8l0,0c0,4.418-3.582,8-8,8H56c-4.418,0-8-3.582-8-8l0,0
		C48,379.582,51.582,376,56,376z"/>
	<path style="fill:#CAD1D8;" d="M56,344h136c4.418,0,8.001,3.582,8.001,8l0,0c0,4.418-3.582,8-8.001,8H56c-4.418,0-8-3.582-8-8l0,0
		C48,347.582,51.582,344,56,344z"/>
	<path style="fill:#CAD1D8;" d="M56,408h128c4.418,0,8,3.582,8,8l0,0c0,4.418-3.582,8-8,8H56c-4.418,0-8-3.582-8-8l0,0
		C48,411.582,51.582,408,56,408z"/>
	<path style="fill:#CAD1D8;" d="M296,376h111.68c4.418,0,8,3.582,8,8l0,0c0,4.418-3.582,8-8,8H296c-4.418,0-8-3.582-8-8l0,0
		C288,379.582,291.582,376,296,376z"/>
	<path style="fill:#CAD1D8;" d="M296,312h160c4.418,0,8,3.582,8,8l0,0c0,4.418-3.582,8-8,8H296c-4.418,0-8-3.582-8-8l0,0
		C288,315.582,291.582,312,296,312z"/>
	<path style="fill:#CAD1D8;" d="M296,344h127.76c4.418,0,8,3.582,8,8l0,0c0,4.418-3.582,8-8,8H296c-4.418,0-8-3.582-8-8l0,0
		C288,347.582,291.582,344,296,344z"/>
	<path style="fill:#CAD1D8;" d="M296,408h127.76c4.418,0,8,3.582,8,8l0,0c0,4.418-3.582,8-8,8H296c-4.418,0-8-3.582-8-8l0,0
		C288,411.582,291.582,408,296,408z"/>
	<path style="fill:#CAD1D8;" d="M296,248.001h111.68c4.418,0,8,3.582,8,8.001l0,0c0,4.418-3.582,8-8,8H296c-4.418,0-8-3.582-8-8l0,0
		C288,251.582,291.582,248.001,296,248.001z"/>
	<path style="fill:#CAD1D8;" d="M296,184.001h160c4.418,0,8,3.582,8,8l0,0c0,4.418-3.582,8.001-8,8.001H296
		c-4.418,0-8-3.582-8-8.001l0,0C288,187.582,291.582,184.001,296,184.001z"/>
	<path style="fill:#CAD1D8;" d="M296,152.001h160c4.418,0,8,3.582,8,8l0,0c0,4.418-3.582,8.001-8,8.001H296
		c-4.418,0-8-3.582-8-8.001l0,0C288,155.582,291.582,152.001,296,152.001z"/>
	<path style="fill:#CAD1D8;" d="M296,216.001h127.76c4.418,0,8,3.582,8,8l0,0c0,4.418-3.582,8.001-8,8.001H296
		c-4.418,0-8-3.582-8-8.001l0,0C288,219.582,291.582,216.001,296,216.001z"/>
	<path style="fill:#CAD1D8;" d="M296,280h127.76c4.418,0,8,3.582,8,8l0,0c0,4.418-3.582,8-8,8H296c-4.418,0-8-3.582-8-8l0,0
		C288,283.582,291.582,280,296,280z"/>
	<path style="fill:#CAD1D8;" d="M56,440h160c4.418,0,8,3.582,8,8l0,0c0,4.418-3.582,8-8,8H56c-4.418,0-8-3.582-8-8l0,0
		C48,443.582,51.582,440,56,440z"/>
	<path style="fill:#CAD1D8;" d="M296,440h56c4.418,0,8,3.582,8,8l0,0c0,4.418-3.582,8-8,8h-56c-4.418,0-8-3.582-8-8l0,0
		C288,443.582,291.582,440,296,440z"/>
</g>
<g>
	<path style="fill:#595A66;" d="M144,120L144,120c0,4.418-3.582,8-8.001,8H56c-4.418,0-8-3.582-8-8l0,0c0-4.418,3.582-8,8-8h80
		C140.418,112,144,115.582,144,120z"/>
	<path style="fill:#595A66;" d="M216.001,120L216.001,120c0,4.418-3.582,8-8.001,8h-40.001c-4.418,0-8.001-3.582-8.001-8l0,0
		c0-4.418,3.582-8,8.001-8H208C212.418,112,216.001,115.582,216.001,120z"/>
</g>
<g>
</g>
<g>
</g>
<g>
</g>
<g>
</g>
<g>
</g>
<g>
</g>
<g>
</g>
<g>
</g>
<g>
</g>
<g>
</g>
<g>
</g>
<g>
</g>
<g>
</g>
<g>
</g>
<g>
</g>
</svg>
