<?xml version="1.0" encoding="iso-8859-1"?>
<!-- Generator: Adobe Illustrator 19.0.0, SVG Export Plug-In . SVG Version: 6.00 Build 0)  -->
<svg version="1.1" id="Layer_1" xmlns="http://www.w3.org/2000/svg" xmlns:xlink="http://www.w3.org/1999/xlink" x="0px" y="0px"
	 viewBox="0 0 512.001 512.001" style="enable-background:new 0 0 512.001 512.001;" xml:space="preserve">
<path style="fill:#CAD1D8;" d="M24,16h464c13.254,0,24,10.745,24,24v432c0,13.254-10.745,24-24,24H24C10.745,496,0,485.255,0,472V40
	C0,26.745,10.745,16,24,16z"/>
<path style="fill:#FFFFFF;" d="M24,80h464c4.418,0,8,3.582,8,8v384c0,4.418-3.582,8-8,8H24c-4.418,0-8-3.582-8-8V88
	C16,83.582,19.582,80,24,80z"/>
<path style="fill:#595A66;" d="M128,232.001h256c8.837,0,16,7.163,16,16V416l0,0H112l0,0V248.001
	C112,239.164,119.163,232.001,128,232.001z"/>
<g>
	<circle style="fill:#9BA7AF;" cx="24.002" cy="47.995" r="7.998"/>
	<circle style="fill:#9BA7AF;" cx="56.002" cy="47.995" r="7.998"/>
	<circle style="fill:#9BA7AF;" cx="88.002" cy="47.995" r="7.998"/>
</g>
<path style="fill:#E2E5E7;" d="M120,40h368c4.418,0,8,3.582,8,8l0,0c0,4.418-3.582,8-8,8H120c-4.418,0-8-3.582-8-8l0,0
	C112,43.582,115.582,40,120,40z"/>
<g>
	<path style="fill:#CAD1D8;" d="M152.001,136.001h208c4.418,0,8,3.582,8,8l0,0c0,4.418-3.582,8.001-8,8.001h-208
		c-4.418,0-8.001-3.582-8.001-8.001l0,0C144,139.582,147.582,136.001,152.001,136.001z"/>
	<path style="fill:#CAD1D8;" d="M192,168.001h128c4.418,0,8,3.582,8,8l0,0c0,4.418-3.582,8.001-8,8.001H192
		c-4.418,0-8.001-3.582-8.001-8.001l0,0C184.001,171.582,187.582,168.001,192,168.001z"/>
</g>
<path style="fill:#ABE1FA;" d="M136.001,248.001h240c4.418,0,8,3.582,8,8.001v144c0,4.418-3.582,8-8,8h-240
	c-4.418,0-8.001-3.582-8.001-8V256C128,251.582,131.582,248.001,136.001,248.001z"/>
<circle style="fill:#FDBA4D;" cx="180.004" cy="284.001" r="20.004"/>
<path style="fill:#FFFFFF;" d="M384,386.64l-77.76-77.76c-4.135-4.175-10.872-4.208-15.047-0.072
	c-0.025,0.024-0.049,0.049-0.072,0.072L192,408h181.36c5.876,0,10.64-4.764,10.64-10.64l0,0L384,386.64L384,386.64z"/>
<path style="fill:#CAD1D8;" d="M341.36,354.64L341.36,354.64c-2.938,2.935-2.94,7.697-0.005,10.635
	c0.002,0.002,0.003,0.003,0.005,0.005l6.24,6.24c9.656,9.682,15.066,22.806,15.04,36.48H376c4.418,0,8-3.582,8-8v-13.36l-32-32
	c-2.935-2.938-7.697-2.94-10.635-0.005C341.363,354.636,341.362,354.638,341.36,354.64z"/>
<path style="fill:#FFFFFF;" d="M136.001,408h130.64L200,331.84c-3.875-4.418-10.596-4.859-15.015-0.985
	c-0.349,0.307-0.679,0.636-0.985,0.985l-56,54.8V400C128,404.418,131.582,408,136.001,408z"/>
<path style="fill:#CAD1D8;" d="M258.24,374c-6.423-7.273-16.952-9.28-25.6-4.88l34,38.88H288L258.24,374z"/>
<path style="fill:#595A66;" d="M416,432H96c-8.837,0-16-7.163-16-16l0,0c0-4.418,3.582-8,8-8h336c4.418,0,8,3.582,8,8l0,0
	C432,424.837,424.837,432,416,432z"/>
<g>
</g>
<g>
</g>
<g>
</g>
<g>
</g>
<g>
</g>
<g>
</g>
<g>
</g>
<g>
</g>
<g>
</g>
<g>
</g>
<g>
</g>
<g>
</g>
<g>
</g>
<g>
</g>
<g>
</g>
</svg>
